{
    "asset" : {
        "generator" : "Khronos glTF Blender I/O v1.8.19",
        "version" : "2.0"
    },
    "scene" : 0,
    "scenes" : [
        {
            "name" : "Scene",
            "nodes" : [
                0,
                1,
                2,
                3,
                4,
                5,
                6
            ]
        }
    ],
    "nodes" : [
        {
            "mesh" : 0,
            "name" : "City",
            "translation" : [
                0,
                1,
                0
            ]
        },
        {
            "name" : "Sketch-noimp",
            "rotation" : [
                0,
                0.7071068286895752,
                0,
                0.7071067094802856
            ],
            "scale" : [
                20.575353622436523,
                20.575353622436523,
                20.575353622436523
            ],
            "translation" : [
                0,
                -1,
                0
            ]
        },
        {
            "name" : "Pillar Points-noimp",
            "translation" : [
                0,
                1,
                0
            ]
        },
        {
            "mesh" : 1,
            "name" : "Pillars",
            "translation" : [
                0,
                1,
                0
            ]
        },
        {
            "mesh" : 2,
            "name" : "PlayerReference-noimp",
            "rotation" : [
                0.002412865636870265,
                0.710416853427887,
                0.0030119726434350014,
                0.703770637512207
            ],
            "scale" : [
                0.33831506967544556,
                0.3383151888847351,
                0.3383151590824127
            ],
            "translation" : [
                2.9434964656829834,
                1.369046688079834,
                2.1112680435180664
            ]
        },
        {
            "mesh" : 3,
            "name" : "CityWalls-noimp",
            "translation" : [
                0,
                1,
                0
            ]
        },
        {
            "mesh" : 4,
            "name" : "Floor",
            "scale" : [
                3.482435703277588,
                3.482435703277588,
                3.482435703277588
            ],
            "translation" : [
                -28.95441436767578,
                2.6551856994628906,
                -31.349864959716797
            ]
        }
    ],
    "materials" : [
        {
            "doubleSided" : true,
            "name" : "Material.002",
            "pbrMetallicRoughness" : {
                "baseColorFactor" : [
                    0.800000011920929,
                    0.800000011920929,
                    0.800000011920929,
                    1
                ],
                "metallicFactor" : 0,
                "roughnessFactor" : 0.4000000059604645
            }
        },
        {
            "doubleSided" : true,
            "name" : "Material.001",
            "pbrMetallicRoughness" : {
                "baseColorFactor" : [
                    0.800000011920929,
                    0.800000011920929,
                    0.800000011920929,
                    1
                ],
                "metallicFactor" : 0,
                "roughnessFactor" : 0.4000000059604645
            }
        },
        {
            "doubleSided" : true,
            "name" : "Texture",
            "pbrMetallicRoughness" : {
                "metallicFactor" : 0,
                "roughnessFactor" : 0.5
            }
        },
        {
            "doubleSided" : true,
            "name" : "Material.004",
            "pbrMetallicRoughness" : {
                "baseColorFactor" : [
                    0.800000011920929,
                    0.800000011920929,
                    0.800000011920929,
                    1
                ],
                "metallicFactor" : 0,
                "roughnessFactor" : 0.4000000059604645
            }
        },
        {
            "doubleSided" : true,
            "name" : "Material",
            "pbrMetallicRoughness" : {
                "baseColorFactor" : [
                    0.800000011920929,
                    0.800000011920929,
                    0.800000011920929,
                    1
                ],
                "metallicFactor" : 0,
                "roughnessFactor" : 0.4000000059604645
            }
        }
    ],
    "meshes" : [
        {
            "name" : "Cube.002",
            "primitives" : [
                {
                    "attributes" : {
                        "POSITION" : 0,
                        "NORMAL" : 1,
                        "TANGENT" : 2,
                        "TEXCOORD_0" : 3
                    },
                    "indices" : 4,
                    "material" : 0
                }
            ]
        },
        {
            "name" : "Cube.003",
            "primitives" : [
                {
                    "attributes" : {
                        "POSITION" : 5,
                        "NORMAL" : 6,
                        "TANGENT" : 7,
                        "TEXCOORD_0" : 8
                    },
                    "indices" : 9,
                    "material" : 1
                }
            ]
        },
        {
            "name" : "Roundcube.032",
            "primitives" : [
                {
                    "attributes" : {
                        "POSITION" : 10,
                        "NORMAL" : 11,
                        "TEXCOORD_0" : 12
                    },
                    "indices" : 13,
                    "material" : 2
                }
            ]
        },
        {
            "name" : "Cube.005",
            "primitives" : [
                {
                    "attributes" : {
                        "POSITION" : 14,
                        "NORMAL" : 15,
                        "TANGENT" : 16,
                        "TEXCOORD_0" : 17
                    },
                    "indices" : 18,
                    "material" : 3
                }
            ]
        },
        {
            "name" : "Cube.006",
            "primitives" : [
                {
                    "attributes" : {
                        "POSITION" : 19,
                        "NORMAL" : 20,
                        "TANGENT" : 21,
                        "TEXCOORD_0" : 22
                    },
                    "indices" : 23,
                    "material" : 4
                }
            ]
        }
    ],
    "accessors" : [
        {
            "bufferView" : 0,
            "componentType" : 5126,
            "count" : 1462,
            "max" : [
                70.59065246582031,
                5.187977313995361,
                35.78260803222656
            ],
            "min" : [
                -46.005409240722656,
                -1.1225557327270508,
                -55.59752655029297
            ],
            "type" : "VEC3"
        },
        {
            "bufferView" : 1,
            "componentType" : 5126,
            "count" : 1462,
            "type" : "VEC3"
        },
        {
            "bufferView" : 2,
            "componentType" : 5126,
            "count" : 1462,
            "type" : "VEC4"
        },
        {
            "bufferView" : 3,
            "componentType" : 5126,
            "count" : 1462,
            "type" : "VEC2"
        },
        {
            "bufferView" : 4,
            "componentType" : 5123,
            "count" : 2520,
            "type" : "SCALAR"
        },
        {
            "bufferView" : 5,
            "componentType" : 5126,
            "count" : 1800,
            "max" : [
                70.49064636230469,
                5.1376214027404785,
                35.18260955810547
            ],
            "min" : [
                -45.9054069519043,
                -1,
                -55.497528076171875
            ],
            "type" : "VEC3"
        },
        {
            "bufferView" : 6,
            "componentType" : 5126,
            "count" : 1800,
            "type" : "VEC3"
        },
        {
            "bufferView" : 7,
            "componentType" : 5126,
            "count" : 1800,
            "type" : "VEC4"
        },
        {
            "bufferView" : 8,
            "componentType" : 5126,
            "count" : 1800,
            "type" : "VEC2"
        },
        {
            "bufferView" : 9,
            "componentType" : 5123,
            "count" : 2700,
            "type" : "SCALAR"
        },
        {
            "bufferView" : 10,
            "componentType" : 5126,
            "count" : 2182,
            "max" : [
                1.5632085800170898,
                1.0313854217529297,
                0.536402702331543
            ],
            "min" : [
                -1.5632076263427734,
                -4.033962726593018,
                -0.9310441017150879
            ],
            "type" : "VEC3"
        },
        {
            "bufferView" : 11,
            "componentType" : 5126,
            "count" : 2182,
            "type" : "VEC3"
        },
        {
            "bufferView" : 12,
            "componentType" : 5126,
            "count" : 2182,
            "type" : "VEC2"
        },
        {
            "bufferView" : 13,
            "componentType" : 5123,
            "count" : 6063,
            "type" : "SCALAR"
        },
        {
            "bufferView" : 14,
            "componentType" : 5126,
            "count" : 338,
            "max" : [
                70.09064483642578,
                5.1376214027404785,
                34.78260803222656
            ],
            "min" : [
                -45.50540542602539,
                -1,
                -55.09752655029297
            ],
            "type" : "VEC3"
        },
        {
            "bufferView" : 15,
            "componentType" : 5126,
            "count" : 338,
            "type" : "VEC3"
        },
        {
            "bufferView" : 16,
            "componentType" : 5126,
            "count" : 338,
            "type" : "VEC4"
        },
        {
            "bufferView" : 17,
            "componentType" : 5126,
            "count" : 338,
            "type" : "VEC2"
        },
        {
            "bufferView" : 18,
            "componentType" : 5123,
            "count" : 570,
            "type" : "SCALAR"
        },
        {
            "bufferView" : 19,
            "componentType" : 5126,
            "count" : 108,
            "max" : [
                67.10087585449219,
                -0.3026852011680603,
                67.78874206542969
            ],
            "min" : [
                -50.4720458984375,
                -0.8052969574928284,
                -49.7841796875
            ],
            "type" : "VEC3"
        },
        {
            "bufferView" : 20,
            "componentType" : 5126,
            "count" : 108,
            "type" : "VEC3"
        },
        {
            "bufferView" : 21,
            "componentType" : 5126,
            "count" : 108,
            "type" : "VEC4"
        },
        {
            "bufferView" : 22,
            "componentType" : 5126,
            "count" : 108,
            "type" : "VEC2"
        },
        {
            "bufferView" : 23,
            "componentType" : 5123,
            "count" : 192,
            "type" : "SCALAR"
        }
    ],
    "bufferViews" : [
        {
            "buffer" : 0,
            "byteLength" : 17544,
            "byteOffset" : 0
        },
        {
            "buffer" : 0,
            "byteLength" : 17544,
            "byteOffset" : 17544
        },
        {
            "buffer" : 0,
            "byteLength" : 23392,
            "byteOffset" : 35088
        },
        {
            "buffer" : 0,
            "byteLength" : 11696,
            "byteOffset" : 58480
        },
        {
            "buffer" : 0,
            "byteLength" : 5040,
            "byteOffset" : 70176
        },
        {
            "buffer" : 0,
            "byteLength" : 21600,
            "byteOffset" : 75216
        },
        {
            "buffer" : 0,
            "byteLength" : 21600,
            "byteOffset" : 96816
        },
        {
            "buffer" : 0,
            "byteLength" : 28800,
            "byteOffset" : 118416
        },
        {
            "buffer" : 0,
            "byteLength" : 14400,
            "byteOffset" : 147216
        },
        {
            "buffer" : 0,
            "byteLength" : 5400,
            "byteOffset" : 161616
        },
        {
            "buffer" : 0,
            "byteLength" : 26184,
            "byteOffset" : 167016
        },
        {
            "buffer" : 0,
            "byteLength" : 26184,
            "byteOffset" : 193200
        },
        {
            "buffer" : 0,
            "byteLength" : 17456,
            "byteOffset" : 219384
        },
        {
            "buffer" : 0,
            "byteLength" : 12126,
            "byteOffset" : 236840
        },
        {
            "buffer" : 0,
            "byteLength" : 4056,
            "byteOffset" : 248968
        },
        {
            "buffer" : 0,
            "byteLength" : 4056,
            "byteOffset" : 253024
        },
        {
            "buffer" : 0,
            "byteLength" : 5408,
            "byteOffset" : 257080
        },
        {
            "buffer" : 0,
            "byteLength" : 2704,
            "byteOffset" : 262488
        },
        {
            "buffer" : 0,
            "byteLength" : 1140,
            "byteOffset" : 265192
        },
        {
            "buffer" : 0,
            "byteLength" : 1296,
            "byteOffset" : 266332
        },
        {
            "buffer" : 0,
            "byteLength" : 1296,
            "byteOffset" : 267628
        },
        {
            "buffer" : 0,
            "byteLength" : 1728,
            "byteOffset" : 268924
        },
        {
            "buffer" : 0,
            "byteLength" : 864,
            "byteOffset" : 270652
        },
        {
            "buffer" : 0,
            "byteLength" : 384,
            "byteOffset" : 271516
        }
    ],
    "buffers" : [
        {
            "byteLength" : 271900,
            "uri" : "City-a7977465ef98bf93ae7c08d901853e77.bin"
        }
    ]
}
